Coordinates
version=1
nRows=24
nColumns=38
inDegrees=no

Units are S.I. units (second, meters, Newtons, ...)
If the header above contains a line with 'inDegrees', this indicates whether rotational values are in degrees (yes) or radians (no).

endheader
time	pelvis_tilt	pelvis_list	pelvis_rotation	pelvis_tx	pelvis_ty	pelvis_tz	hip_flexion_r	hip_adduction_r	hip_rotation_r	knee_angle_r	ankle_angle_r	subtalar_angle_r	mtp_angle_r	hip_flexion_l	hip_adduction_l	hip_rotation_l	knee_angle_l	ankle_angle_l	subtalar_angle_l	mtp_angle_l	lumbar_extension	lumbar_bending	lumbar_rotation	arm_flex_r	arm_add_r	arm_rot_r	elbow_flex_r	pro_sup_r	wrist_flex_r	wrist_dev_r	arm_flex_l	arm_add_l	arm_rot_l	elbow_flex_l	pro_sup_l	wrist_flex_l	wrist_dev_l
1.53	0.0762641	0.0571371	0.0771774	0.94589	1.05851	-0.328348	-0.306764	-0.21058	-0.550546	-1.04265	-0.0779905	0.0200204	0.000164369	0.286816	0.0921549	-0.193035	-0.310358	-0.0644976	0.0206575	0.00105776	-0.275085	-0.0628774	0.12668	-0.346944	-0.287976	0.189798	2.2186	1.63379	0.0017308	0.0200989	-0.680218	-0.158718	-0.106989	2.29799	1.5869	0.0151051	0.00682351
1.54	0.0811552	0.0648202	0.0845289	0.944592	1.0515	-0.329549	-0.276784	-0.230971	-0.541069	-1.14085	-0.0585972	0.0200204	0.000164369	0.28561	0.105314	-0.168133	-0.36509	-0.0259372	0.0206575	0.00105776	-0.284905	-0.0704419	0.106245	-0.365196	-0.285702	0.161758	2.18619	1.63405	0.0017308	0.0200989	-0.6534	-0.170182	-0.101041	2.28337	1.57866	0.0151051	0.00682351
1.55	0.0851246	0.0727895	0.0923116	0.942834	1.04372	-0.330737	-0.241768	-0.25	-0.528293	-1.23759	-0.041821	0.0200204	0.000164369	0.287747	0.119196	-0.142307	-0.431611	0.0236647	0.0206575	0.00105776	-0.294913	-0.0777207	0.0842588	-0.382073	-0.283825	0.132694	2.15063	1.63518	0.0017308	0.0200989	-0.623146	-0.183316	-0.0941104	2.26507	1.57091	0.0151051	0.00682351
1.56	0.0881318	0.0806213	0.0999333	0.9406	1.03551	-0.331813	-0.201487	-0.26723	-0.512403	-1.33165	-0.0268219	0.0200204	0.000164369	0.292147	0.133087	-0.118036	-0.505592	0.081657	0.0206575	0.00105776	-0.304933	-0.0844323	0.0614108	-0.397127	-0.282337	0.103233	2.11195	1.63804	0.0017308	0.0200989	-0.589491	-0.197539	-0.0863162	2.24326	1.56414	0.0151051	0.00682351
1.57	0.0902031	0.087886	0.106793	0.937946	1.02732	-0.332696	-0.155904	-0.282206	-0.493603	-1.42162	-0.0129076	0.0200204	0.000164369	0.297275	0.146169	-0.0971432	-0.582073	0.144576	0.0206575	0.00105776	-0.314698	-0.0902823	0.0383967	-0.410086	-0.281201	0.0740306	2.07035	1.64354	0.0017308	0.0200989	-0.552629	-0.21221	-0.077794	2.21846	1.55861	0.0151051	0.00682351
1.58	0.0913808	0.0941141	0.112341	0.934945	1.01954	-0.333355	-0.105273	-0.294439	-0.472206	-1.50585	0.000405359	0.0200204	0.000164369	0.301262	0.157562	-0.0805727	-0.655944	0.208831	0.0206575	0.00105776	-0.323879	-0.094926	0.0158495	-0.420899	-0.2804	0.0458172	2.0264	1.65236	0.0017308	0.0200989	-0.513012	-0.226652	-0.0687343	2.19172	1.55435	0.0151051	0.00682351
1.59	0.0917199	0.098788	0.116156	0.931684	1.01243	-0.333798	-0.0501627	-0.303456	-0.448745	-1.58255	0.0133866	0.0200204	0.000164369	0.302159	0.166394	-0.0684227	-0.722501	0.271276	0.0206575	0.00105776	-0.332076	-0.0979625	-0.00574848	-0.429751	-0.27998	0.0194318	1.98115	1.66476	0.0017308	0.0200989	-0.471415	-0.240164	-0.0594301	2.16457	1.55121	0.0151051	0.00682351
1.6	0.0912248	0.101433	0.118007	0.928259	1.00619	-0.334053	0.00854333	-0.308873	-0.42406	-1.64995	0.0261109	0.0200204	0.000164369	0.298216	0.171893	-0.0601472	-0.777927	0.329481	0.0206575	0.00105776	-0.33885	-0.0989453	-0.0261478	-0.437041	-0.280085	-0.00420496	1.93617	1.68033	0.0017308	0.0200989	-0.428962	-0.252063	-0.0503087	2.13906	1.54892	0.0151051	0.00682351
1.61	0.0898991	0.101656	0.11789	0.924835	1.00103	-0.334152	0.0697288	-0.310501	-0.399316	-1.70643	0.0384879	0.0200204	0.000164369	0.288151	0.173498	-0.0548311	-0.819556	0.381683	0.0206575	0.00105776	-0.343705	-0.0974599	-0.045378	-0.443343	-0.280932	-0.0241787	1.89351	1.69786	0.0017308	0.0200989	-0.387052	-0.261737	-0.0419117	2.11754	1.54713	0.0151051	0.00682351
1.62	0.0877383	0.0991764	0.116031	0.921589	0.997125	-0.334126	0.132105	-0.308402	-0.375924	-1.75063	0.0503083	0.0200204	0.000164369	0.271252	0.170932	-0.0514534	-0.845938	0.426569	0.0206575	0.00105776	-0.346157	-0.0932011	-0.0636871	-0.449363	-0.282746	-0.0397407	1.85548	1.71546	0.0017308	0.0200989	-0.347195	-0.268718	-0.0347889	2.10236	1.54546	0.0151051	0.00682351
1.63	0.0847241	0.0938762	0.112803	0.918691	0.994583	-0.334018	0.194278	-0.302859	-0.355382	-1.78158	0.0613131	0.0200204	0.000164369	0.247357	0.164194	-0.0491173	-0.85673	0.463018	0.0206575	0.00105776	-0.345833	-0.0859894	-0.0813444	-0.455932	-0.285644	-0.0505434	1.82436	1.73083	0.0017308	0.0200989	-0.310729	-0.272747	-0.0292815	2.09546	1.54359	0.0151051	0.00682351
1.64	0.080865	0.0857537	0.108603	0.916282	0.993464	-0.333861	0.25481	-0.294274	-0.339073	-1.7987	0.0712838	0.0200204	0.000164369	0.216773	0.153494	-0.0472406	-0.852544	0.489898	0.0206575	0.00105776	-0.342582	-0.0757389	-0.0983037	-0.464078	-0.289507	-0.0569535	1.80212	1.74177	0.0017308	0.0200989	-0.278482	-0.273849	-0.0252017	2.09803	1.54132	0.0151051	0.00682351
1.65	0.0761646	0.0749345	0.103742	0.91446	0.993763	-0.33367	0.312363	-0.283086	-0.328073	-1.80179	0.0800973	0.0200204	0.000164369	0.180188	0.139209	-0.0456993	-0.834658	0.505896	0.0206575	0.00105776	-0.336401	-0.0625384	-0.114318	-0.474716	-0.29401	-0.0598028	1.78994	1.74679	0.0017308	0.0200989	-0.250838	-0.272267	-0.0220023	2.11028	1.53866	0.0151051	0.00682351
1.66	0.070633	0.0616754	0.0983804	0.913292	0.995422	-0.333435	0.365777	-0.269695	-0.323022	-1.79097	0.0877461	0.0200204	0.000164369	0.138573	0.121838	-0.0448695	-0.804787	0.509471	0.0206575	0.00105776	-0.327391	-0.0466709	-0.129021	-0.488447	-0.29868	-0.0601674	1.78792	1.74532	0.0017308	0.0200989	-0.227826	-0.268392	-0.018928	2.13147	1.53593	0.0151051	0.00682351
1.67	0.0643101	0.0463573	0.0925139	0.912815	0.998339	-0.33313	0.414107	-0.254428	-0.324075	-1.76665	0.0943024	0.0200204	0.000164369	0.0930697	0.10198	-0.0455574	-0.764908	0.498969	0.0206575	0.00105776	-0.315772	-0.0286012	-0.142009	-0.50546	-0.302953	-0.0591793	1.79509	1.73772	0.0017308	0.0200989	-0.209222	-0.262694	-0.0151637	2.16005	1.53369	0.0151051	0.00682351
1.68	0.0572827	0.0294683	0.0860269	0.913028	1.00239	-0.332718	0.456621	-0.237525	-0.330899	-1.72935	0.099835	0.0200204	0.000164369	0.0449033	0.0803207	-0.0488453	-0.717156	0.472887	0.0206575	0.00105776	-0.301893	-0.00893501	-0.152933	-0.525542	-0.306253	-0.0578827	1.80963	1.72514	0.0017308	0.0200989	-0.194659	-0.255652	-0.00996682	2.19399	1.5327	0.0151051	0.00682351
1.69	0.0496969	0.0115971	0.078777	0.913902	1.00744	-0.332169	0.492792	-0.219162	-0.342722	-1.67973	0.104323	0.0200204	0.000164369	-0.00467798	0.0576237	-0.0558826	-0.663773	0.430249	0.0206575	0.00105776	-0.286232	0.0116346	-0.161578	-0.548152	-0.308052	-0.0571429	1.82926	1.70919	0.0017308	0.0200989	-0.183714	-0.247715	-0.00275326	2.2311	1.53369	0.0151051	0.00682351
1.7	0.041793	-0.00657767	0.0706924	0.915379	1.0133	-0.331471	0.522271	-0.19949	-0.358397	-1.61846	0.107614	0.0200204	0.000164369	-0.054434	0.0347122	-0.067658	-0.607097	0.371002	0.0206575	0.00105776	-0.269365	0.0323843	-0.167915	-0.572555	-0.30792	-0.0576099	1.85166	1.69162	0.0017308	0.0200989	-0.175942	-0.239276	0.00687723	2.26931	1.53726	0.0151051	0.00682351
1.71	0.0338973	-0.0243561	0.0618563	0.917373	1.0198	-0.330625	0.544845	-0.178679	-0.376484	-1.54622	0.109449	0.0200204	0.000164369	-0.10318	0.0124444	-0.0847928	-0.549574	0.296341	0.0206575	0.00105776	-0.251953	0.0525938	-0.17209	-0.59795	-0.305552	-0.0597262	1.87478	1.67395	0.0017308	0.0200989	-0.170874	-0.230679	0.0191678	2.30686	1.54362	0.0151051	0.00682351
1.72	0.0263462	-0.0410333	0.0525289	0.919766	1.02675	-0.329661	0.56041	-0.156964	-0.395342	-1.4637	0.10953	0.0200204	0.000164369	-0.149812	-0.00833215	-0.107389	-0.493777	0.208904	0.0206575	0.00105776	-0.234718	0.0715825	-0.174395	-0.623582	-0.300758	-0.0637721	1.8971	1.65738	0.0017308	0.0200989	-0.167991	-0.222232	0.0342456	2.34238	1.55257	0.0151051	0.00682351
1.73	0.0194825	-0.0559168	0.0431139	0.922422	1.03391	-0.328635	0.568965	-0.134661	-0.413241	-1.37169	0.107597	0.0200204	0.000164369	-0.193326	-0.0268576	-0.134971	-0.44238	0.112767	0.0206575	0.00105776	-0.218389	0.0887555	-0.175187	-0.648811	-0.293455	-0.0699189	1.91766	1.64284	0.0017308	0.0200989	-0.166719	-0.214224	0.0521495	2.37491	1.56343	0.0151051	0.00682351
1.74	0.0136411	-0.068392	0.0340814	0.925197	1.04104	-0.327634	0.570617	-0.112162	-0.428507	-1.27109	0.103468	0.0200204	0.000164369	-0.232856	-0.0425539	-0.166552	-0.398061	0.0131768	0.0206575	0.00105776	-0.203646	0.103645	-0.174803	-0.673142	-0.283651	-0.078268	1.93607	1.63101	0.0017308	0.0200989	-0.166441	-0.206926	0.0728285	2.40384	1.57515	0.0151051	0.00682351
1.75	0.00912651	-0.0780069	0.0258756	0.927966	1.04795	-0.326727	0.565582	-0.0898961	-0.439703	-1.16308	0.0970475	0.0200204	0.000164369	-0.267738	-0.0551223	-0.200803	-0.36333	-0.083956	0.0206575	0.00105776	-0.191081	0.115958	-0.173488	-0.696211	-0.271447	-0.0888535	1.95237	1.62233	0.0017308	0.0200989	-0.16656	-0.200592	0.096106	2.42888	1.5866	0.0151051	0.00682351
1.76	0.00620291	-0.0845483	0.0188307	0.930624	1.05442	-0.325969	0.554178	-0.0682849	-0.445835	-1.04915	0.0882907	0.0200204	0.000164369	-0.29758	-0.0646215	-0.236264	-0.340312	-0.172765	0.0206575	0.00105776	-0.181183	0.125612	-0.171371	-0.717729	-0.257054	-0.101602	1.96686	1.61696	0.0017308	0.0200989	-0.166574	-0.195437	0.121618	2.44992	1.59673	0.0151051	0.00682351
